<svg width="24" height="22" viewBox="0 0 24 22" fill="none" xmlns="http://www.w3.org/2000/svg" role="img">
<path d="M7.17177 19.3598C6.25777 18.6398 5.28177 17.9498 4.61577 16.9798C3.21377 15.2678 2.13377 13.2858 1.39577 11.2028C0.949768 9.84778 0.795768 8.39478 0.221768 7.09278C-0.380232 6.14878 0.324768 5.11478 1.35977 4.81278C1.81977 4.72578 2.63177 4.29078 1.65277 4.60178C0.774768 5.24578 0.689768 4.01678 1.58977 3.93978C2.20477 3.85778 2.42977 3.35478 2.21977 2.90278C1.55977 2.47278 3.81977 1.99978 2.68277 1.35878C1.49977 0.0797763 4.33977 -0.165224 3.63977 1.28478C3.47277 2.39978 5.62377 1.07978 5.12477 2.36778C5.63177 2.98678 7.02477 2.50778 6.98977 3.37678C7.72977 3.42678 7.98277 4.04878 8.67677 4.09678C9.39677 4.42178 10.6988 4.67678 10.9428 5.48678C10.2298 6.05278 8.57877 4.32178 8.49977 5.88478C8.71477 8.19478 8.65977 10.5738 9.50377 12.7728C9.90377 14.1048 10.8738 15.1528 11.7478 16.1908C12.5848 17.2068 13.7188 17.9208 14.8748 18.5238C15.8888 19.0018 16.9818 19.3188 18.0878 19.5178C18.5358 19.1748 19.3278 17.9008 20.0258 18.4378C20.0588 19.0418 18.6378 19.7008 19.9588 19.6338C20.7348 19.3998 21.2728 20.2338 21.9118 19.4818C22.4998 20.1788 24.3578 19.0358 23.9388 20.4618C23.3728 20.8258 22.5468 20.6058 21.9798 21.1078C21.0448 20.6408 20.2998 21.5258 19.2648 21.4138C18.1142 21.6127 16.9484 21.7097 15.7808 21.7038C13.8688 21.5538 11.9158 21.4898 10.0968 20.8238C9.07277 20.5268 8.07377 19.9428 7.17277 19.3598H7.17177ZM8.78677 20.0598C9.78677 20.4918 10.7648 20.9478 11.8608 21.0858C13.6008 21.3258 15.3978 21.6998 17.1438 21.3598C16.3538 21.0028 15.5358 21.4998 14.7488 21.1048C13.8048 21.3078 12.7918 21.0528 11.8318 20.9278C10.7398 20.4418 9.56177 20.1078 8.54077 19.4758C7.26377 19.0098 9.20077 20.0738 9.54577 20.1608C10.3438 20.6138 8.66877 19.9278 8.43177 19.7398C7.76377 19.3648 7.67777 19.4428 8.36577 19.8238C8.50477 19.9038 8.64177 19.9898 8.78577 20.0588L8.78677 20.0598ZM6.88277 18.7138C7.85277 19.0728 6.87877 18.0318 6.43277 18.0918C6.23677 17.7508 5.68177 17.5348 6.07277 17.3518C5.36877 17.5958 5.33577 16.4218 5.00277 16.5888C4.25877 16.3538 4.71277 15.5188 3.82677 15.0088C3.74577 14.4688 2.94477 14.0008 2.68877 13.1868C2.57577 12.7708 1.78377 11.5738 2.27077 12.6868C2.68477 13.7588 3.41377 14.6768 4.02077 15.5938C4.49077 16.4668 5.04777 17.3798 5.90577 17.9238C6.19577 18.2018 6.47377 18.6268 6.88277 18.7138V18.7138ZM4.08977 15.6468C4.12277 15.5008 4.26677 15.9638 4.08977 15.6468V15.6468ZM8.04377 19.1438C8.25877 19.0478 7.73377 19.0238 8.04377 19.1438V19.1438ZM8.56977 19.3358C8.51577 19.0708 8.32977 19.4838 8.56977 19.3358V19.3358ZM9.22977 19.6108C9.54177 19.3108 8.74577 19.4228 9.22977 19.6108V19.6108ZM10.3568 20.2408C10.5478 19.9588 9.74677 20.1338 10.3568 20.2408V20.2408ZM8.18977 18.7278C8.67677 18.4128 7.55977 18.7238 8.18977 18.7278V18.7278ZM8.68377 18.9738C8.66977 18.8078 8.50777 19.0488 8.68377 18.9738V18.9738ZM11.1538 20.5158C11.5508 20.7658 13.4738 21.0658 12.2688 20.6188C12.0688 20.6608 10.0388 20.0448 11.1528 20.5158H11.1538ZM7.23277 17.4618C7.19277 17.2948 6.61677 17.2768 7.23277 17.4618V17.4618ZM8.38277 18.1318C8.68277 17.9218 7.76177 17.9718 8.38277 18.1318V18.1318ZM9.34877 18.7248C9.77877 18.5628 8.65277 18.5618 9.34877 18.7248V18.7248ZM6.76477 16.9518C7.23077 17.3098 8.64477 16.9978 7.47877 16.7388C6.94877 16.4558 5.75177 16.2628 6.56677 16.9088L6.76477 16.9518ZM10.0048 18.9298C10.1978 18.5998 9.18977 18.7398 10.0048 18.9298V18.9298ZM9.02077 18.1468C10.1608 18.4698 8.06277 17.4268 8.73977 18.0288L8.88977 18.0968L9.01977 18.1468H9.02077ZM10.9938 19.2868C12.0738 19.2968 10.0188 19.1398 10.9938 19.2868V19.2868ZM6.34977 16.3268C6.30777 16.1268 6.08377 16.3448 6.34977 16.3268V16.3268ZM12.8198 20.3118C12.8478 19.9488 12.4668 20.5818 12.8198 20.3118V20.3118ZM8.18977 17.4558C8.12577 17.2648 7.85377 17.4478 8.18977 17.4558V17.4558ZM6.45177 16.2018C7.07177 16.1648 5.60377 15.9288 6.45177 16.2018V16.2018ZM4.39177 14.8698C4.31477 14.5728 3.71777 14.3358 4.39177 14.8698V14.8698ZM9.79877 18.3048C9.68477 18.1748 9.74477 18.3328 9.79877 18.3048V18.3048ZM13.1648 20.3698C13.1548 20.1728 12.9818 20.4448 13.1648 20.3698V20.3698ZM9.50077 17.9968C9.56077 17.7418 8.97277 17.9198 9.50077 17.9968V17.9968ZM6.99477 16.4048C7.45477 16.3548 6.25477 16.0938 6.99477 16.4048V16.4048ZM11.2358 19.0418C11.9538 18.7568 10.5358 18.9018 11.2358 19.0418V19.0418ZM9.02977 17.5448C9.85677 17.6508 8.04477 16.9818 8.84877 17.4848L9.02977 17.5448ZM11.9058 19.3128C12.6788 18.8508 12.4238 20.3948 13.2168 19.4428C13.9988 18.8728 12.5418 20.1498 13.5068 19.5458C14.2028 19.0788 15.2328 19.7658 15.8828 19.9908C16.3508 19.9678 16.8058 20.3958 17.2858 20.1358C18.2088 19.8858 15.4798 19.7658 16.1958 19.3258C15.3508 19.5708 14.7258 19.0318 14.3108 18.4908C13.3628 18.2708 12.2668 17.7878 11.7938 16.9488C11.6018 16.6338 12.0738 16.9928 11.6278 16.4788C11.0578 15.9708 10.7718 15.3938 10.3878 14.7768C9.93077 14.5328 9.87777 13.8138 9.83077 14.7528C9.83477 14.1598 9.27777 13.7608 9.14277 13.9268C9.14077 13.3558 9.73777 13.6418 9.31877 13.2198C9.22877 12.6278 8.93277 12.0098 8.84377 11.3428C8.70577 11.0208 8.82377 10.3318 8.37077 11.0608C8.20577 11.8308 8.31577 10.1138 8.57277 10.6808C8.90977 10.1008 8.45277 10.1708 8.43277 10.2508C8.65277 9.76278 8.57277 9.07078 8.37577 9.33478C8.49277 8.81778 8.56077 7.43278 8.20077 7.67878C8.41877 7.13878 8.61477 5.20578 7.66677 5.94278C7.28277 5.94778 6.61877 6.08278 6.30377 6.23878C7.28977 6.78178 6.20377 6.43478 5.80377 6.34878C5.75177 6.85078 5.35377 6.63378 4.85777 6.63878C5.65077 6.73678 4.47177 7.44878 4.01677 7.17278C3.42677 7.45478 4.52677 8.15978 4.02877 8.37778C4.08877 8.70578 3.12377 8.25778 3.19877 9.01778C2.62577 8.77678 3.12077 9.91778 3.40777 9.53178C4.38277 9.79578 4.09377 10.3978 4.11777 10.9688C3.95977 11.3018 3.33377 10.1858 3.97777 10.2378C3.47077 9.41078 3.41677 9.93778 2.99377 10.3228C2.89377 10.3508 4.07277 10.8698 3.33377 11.1258C3.98377 11.2258 4.00177 11.7958 4.13377 12.1558C4.52377 12.5628 4.44377 11.7058 4.91277 12.1958C4.61677 11.7598 3.34577 10.9678 4.36877 11.2218C4.36377 10.7818 4.18377 10.4288 4.49777 10.4378C4.80777 9.87578 4.17277 11.8248 4.87277 11.1098C5.06577 11.0248 5.11277 10.5468 5.46277 11.1548C5.96777 11.6528 5.64477 12.0128 4.93177 11.5578C5.05877 11.9908 5.88577 12.1448 5.73077 12.8228C5.89577 13.4178 6.12577 13.1988 6.32677 13.1648C6.48477 13.7428 6.57377 13.3178 6.58177 13.0418C7.30177 13.1968 7.13377 13.6218 7.35977 13.9218C7.85677 14.1458 6.64777 12.3998 7.50177 13.3958C8.39977 14.2058 7.83877 14.5458 7.03177 14.4158C7.54177 14.3748 7.70677 15.1058 8.34477 15.0798C8.92677 15.3568 9.31977 16.4198 8.31777 15.9768C7.96977 15.6638 6.73777 15.2768 7.74477 15.8728C8.67377 16.3028 9.40977 16.5608 10.3058 17.0998C10.9458 17.5578 11.2238 18.0818 11.4658 18.1858C10.9278 18.4428 9.84277 17.9798 10.6488 17.8378C10.1458 17.7468 9.58077 17.4928 10.0618 18.1178C10.4718 18.4608 11.5118 18.4238 11.6988 18.4628C11.5398 18.8108 11.2688 18.8388 11.7048 18.8658C11.2188 19.1258 11.8608 19.1658 11.9058 19.3138V19.3128ZM10.9118 16.5048C10.6158 16.1948 10.5388 15.6148 10.8588 16.1198C11.0228 16.1858 11.3838 17.0668 10.9118 16.5048ZM14.1498 18.5618C14.3348 18.5508 14.1558 18.7018 14.1498 18.5618V18.5618ZM10.4438 15.7458C10.4338 15.2778 10.5508 16.1058 10.4438 15.7458V15.7458ZM10.1218 15.3128C9.74977 14.5928 10.5918 15.5168 10.1218 15.3128V15.3128ZM6.22177 12.6208C6.44077 12.5608 6.32977 12.9948 6.22177 12.6208V12.6208ZM9.32577 14.3028C9.45977 13.7988 9.48377 14.7268 9.32577 14.3028V14.3028ZM7.13377 12.7778C6.97877 12.4998 7.45677 13.0378 7.13377 12.7778V12.7778ZM9.01577 13.3818C8.66377 12.5918 9.26577 12.9498 9.09377 13.5118L9.01577 13.3818ZM5.76977 11.2168C5.61177 10.9568 5.35177 10.1968 5.43577 9.96478C5.51177 10.3428 6.23977 11.5918 5.79277 10.4828C5.29877 9.55278 6.38277 10.7848 6.49477 11.0168C6.54477 11.2468 6.18977 10.9538 6.43077 11.4948C5.99077 10.8778 6.17077 11.8348 5.76977 11.2168ZM4.76677 10.5258C4.80677 9.92278 4.99677 10.9388 4.76677 10.5258V10.5258ZM5.21677 10.6808C5.43277 10.2258 5.58277 11.3148 5.21677 10.6808V10.6808ZM4.13277 9.84078C3.75877 9.47078 3.48877 9.12778 4.14977 9.61078C4.40477 9.62078 3.58377 8.83278 4.20977 9.36078C4.86977 9.48078 4.53677 10.4428 4.13277 9.84078ZM4.70277 9.82578C4.91977 9.61078 4.81777 10.0378 4.70277 9.82578V9.82578ZM5.05277 9.93878C4.72477 9.32178 5.45277 10.1968 5.05277 9.93878V9.93878ZM4.35577 9.27178C3.26977 8.30578 5.72077 9.77778 4.53277 9.45178L4.35577 9.27178ZM7.46577 11.0798C6.99577 10.7978 7.34277 9.09578 7.50277 10.2598C7.95977 10.1118 7.47777 10.8598 7.81777 10.8538C7.76477 11.3268 7.61177 11.4968 7.46777 11.0798H7.46577ZM8.61577 11.7598C8.66377 11.2468 8.71477 12.1098 8.61577 11.7598V11.7598ZM8.41577 11.5618C8.46977 11.3418 8.42277 11.8198 8.41577 11.5618V11.5618ZM4.56977 8.95478C3.87277 7.99178 6.59677 9.92778 5.01677 9.19878C4.85177 9.15578 4.65277 9.13878 4.56977 8.95478ZM6.78577 10.1298C6.71977 9.31978 6.93277 10.2638 6.78577 10.1298V10.1298ZM8.46777 11.2088C8.59777 10.7468 8.47777 11.5138 8.46777 11.2088V11.2088ZM4.67577 8.58678C5.09077 8.49878 6.39377 9.31578 5.19577 8.82078C5.06377 8.67278 4.77977 8.74078 4.67577 8.58678ZM8.23577 10.3618C8.27977 9.53178 8.48377 9.86678 8.23777 10.4798L8.23577 10.3618ZM4.98477 8.29878C5.15377 8.05078 4.53477 7.17878 5.07377 7.98578C5.30577 8.17078 5.74577 8.29578 5.35677 8.37278C5.96677 8.91178 5.20677 8.51878 4.98477 8.29878V8.29878ZM8.05977 10.1028C8.17677 9.15878 8.16277 10.6558 8.05977 10.1028V10.1028ZM4.63177 7.42678C4.76077 7.37178 4.69977 7.59878 4.63177 7.42678V7.42678ZM5.43377 7.90478C5.63977 7.47078 5.81377 8.38778 5.43377 7.90478V7.90478ZM7.69677 9.16378C7.69477 8.99678 7.73977 9.40578 7.69677 9.16378V9.16378ZM7.56577 8.87378C7.25177 8.09778 7.85777 9.28378 7.56577 8.87378V8.87378ZM7.37277 8.36378C7.31977 8.04378 7.55277 8.76778 7.37277 8.36378V8.36378ZM7.68677 7.85378C7.47077 7.47378 7.95877 6.18078 8.01277 6.98378C7.78577 7.60878 7.94777 7.95878 8.10577 7.11978C8.39877 6.45978 8.04277 8.42278 7.68577 7.85478L7.68677 7.85378ZM8.00877 5.93078C8.10277 5.81578 8.02877 6.06978 8.00877 5.93078V5.93078ZM7.46977 16.5438C7.34177 16.4328 7.48577 16.6138 7.46977 16.5438V16.5438ZM8.57977 17.1038C9.19477 17.2638 9.19177 17.0088 8.63477 16.9338C8.33477 16.6538 7.38877 16.3588 8.23477 16.8988C8.29177 17.0408 8.46977 17.0378 8.57877 17.1048L8.57977 17.1038ZM6.38877 15.6498C6.72877 15.9028 7.66877 16.3688 6.87277 15.7458C7.14177 15.4338 6.35877 15.2678 6.61877 15.0598C5.95877 14.6558 6.09877 14.6918 6.56077 14.7038C5.76677 14.3498 6.67477 14.3758 6.63077 14.1938C6.32577 14.1338 5.11077 13.6538 5.82677 14.2338C5.10077 13.8638 5.65377 14.3718 5.43477 14.3178C4.69177 14.1158 6.09477 14.8828 5.31677 14.6928C5.74177 15.0298 6.46277 15.5568 5.49677 15.0498C5.36877 15.2328 6.18677 15.5098 6.38877 15.6498V15.6498ZM7.54877 16.3168C8.95877 16.7708 6.85777 15.7608 7.54877 16.3168V16.3168ZM13.4888 19.9148C13.5088 19.6348 13.2958 20.1548 13.4888 19.9148V19.9148ZM14.0998 20.1718C14.4248 19.8568 14.1128 20.6748 14.6398 20.0948C14.6448 19.6798 14.6228 19.4348 14.0338 19.9388C13.8718 20.0288 13.7998 20.4118 14.0998 20.1718ZM4.40777 14.0848C4.30777 13.6918 3.70777 13.6948 4.40777 14.0848V14.0848ZM5.05977 14.5128C4.81777 14.1108 4.19577 14.1488 5.05977 14.5128V14.5128ZM8.76977 16.7498C9.13177 17.0698 10.4318 16.9858 9.20977 16.7898C9.02777 16.5198 8.05877 16.5858 8.76977 16.7498ZM13.8668 19.8988C14.4248 19.4308 13.3268 20.1068 13.8668 19.8988V19.8988ZM15.0268 20.6948C15.0298 20.5448 14.7868 20.7608 15.0268 20.6948V20.6948ZM15.0278 20.4848C15.6448 19.8308 14.4298 20.5238 15.0278 20.4848V20.4848ZM2.80477 12.7428C2.27877 11.9928 2.47777 11.6548 1.96977 11.0428C1.87377 10.5728 1.09977 9.50978 1.56977 10.6368C1.99977 11.2958 2.12777 12.3158 2.80477 12.7428V12.7428ZM14.8348 20.2768C15.9698 19.5428 14.3688 19.9568 14.8348 20.2768V20.2768ZM15.7008 20.6168C16.2708 20.1288 15.3408 20.5148 15.7008 20.6168V20.6168ZM4.21477 13.2548C4.37777 13.0128 3.79477 13.2238 4.21477 13.2548V13.2548ZM15.5198 20.3838C16.0708 20.0288 15.3938 20.0838 15.4198 20.4158L15.5198 20.3838ZM8.04977 15.6738C8.02977 15.4338 7.75877 15.6938 8.04977 15.6738V15.6738ZM8.50977 15.9408C8.36477 15.6438 8.28577 15.9878 8.50977 15.9408V15.9408ZM16.4038 20.6248C17.1088 20.1148 15.9758 20.5268 16.2558 20.7208L16.4038 20.6248ZM16.1338 20.4948C16.7078 20.0128 15.5268 20.7078 16.1338 20.4948V20.4948ZM17.5138 21.4128C17.8998 21.1548 17.0448 21.3298 17.5138 21.4128V21.4128ZM4.56977 13.0798C5.08677 13.1958 6.63577 14.3538 5.72177 13.1598C5.25377 13.0218 5.53477 11.8768 5.05677 12.0798C5.37677 12.6148 5.32077 12.8428 4.64677 12.5058C3.80177 12.0928 4.17277 12.7098 4.33677 12.8798C4.11277 12.9318 4.63577 13.0758 4.56977 13.0798ZM2.21377 11.2198C2.30577 10.8368 1.36077 9.11278 1.76777 10.3558C1.91377 10.6158 1.89777 11.1098 2.21377 11.2198ZM6.53777 13.8858C6.27177 13.6628 6.52477 13.8538 6.53777 13.8858V13.8858ZM7.19377 14.0378C7.19377 13.6328 6.46877 13.8738 7.19377 14.0378V14.0378ZM12.8748 17.6208C12.7668 17.3428 12.4468 17.6148 12.8748 17.6208V17.6208ZM13.1478 17.8198C13.1078 17.6648 12.9908 17.8498 13.1478 17.8198V17.8198ZM15.3998 19.2398C15.6158 19.0798 15.1298 19.2198 15.3998 19.2398V19.2398ZM3.38977 11.5198C4.00977 11.2798 2.72577 11.3498 3.38977 11.5198V11.5198ZM12.3738 17.1818C12.3668 16.7808 11.9788 17.2818 12.3738 17.1818V17.1818ZM3.14377 10.9508C3.54277 10.8158 2.77677 10.8608 3.14377 10.9508V10.9508ZM4.29977 11.5108C4.29277 11.3778 4.17777 11.5608 4.29977 11.5108V11.5108ZM18.3898 20.1508C18.9018 20.0468 20.0678 20.4108 20.2558 20.0148C19.6358 19.9998 18.1058 19.5768 18.0338 20.1148L18.1698 20.1378L18.3898 20.1508V20.1508ZM4.66677 11.6028C4.67577 11.1958 4.34977 11.5878 4.66677 11.6028V11.6028ZM1.62977 9.49478C1.49177 8.71978 1.10477 9.37678 1.62977 9.49478V9.49478ZM2.35377 9.67678C2.36277 9.42678 1.69077 9.45278 2.35377 9.67678V9.67678ZM2.76777 9.87978C2.64777 9.78278 2.67377 10.0018 2.76777 9.87978V9.87978ZM5.37277 11.5498C5.49477 11.4378 5.08277 11.4668 5.37277 11.5498V11.5498ZM2.49277 9.42178C2.42277 8.83678 1.65277 9.33378 2.49277 9.42178V9.42178ZM1.00677 8.45778C0.986768 8.18778 0.862768 8.55978 1.00677 8.45778V8.45778ZM1.22677 8.29078C1.19177 7.97078 1.03677 8.33078 1.22677 8.29078V8.29078ZM2.44677 9.01978C2.96477 8.81678 1.50677 8.59978 2.34277 8.97978L2.44677 9.01978ZM18.7808 19.1088C19.1108 18.8058 18.3608 19.0148 18.7808 19.1088V19.1088ZM20.7548 20.1318C20.8868 19.7398 20.4208 20.1818 20.7548 20.1318V20.1318ZM2.57277 8.37978C2.62777 7.99978 2.16277 8.45478 2.57277 8.37978V8.37978ZM0.836768 7.21778C0.743768 6.68278 0.756768 5.74378 1.64877 6.06178C0.457768 6.29778 2.47277 7.54178 2.21877 6.55978C2.71877 6.58378 3.19877 6.26378 2.93477 6.74978C3.92177 6.63978 4.60477 5.78578 5.55877 5.90478C6.30077 5.80678 7.11277 5.73278 7.91277 5.43378C8.57077 5.38578 9.20277 4.67778 8.84277 4.25878C7.94677 4.18278 7.00777 4.29478 6.01577 4.49178C4.91777 4.71978 3.91977 5.15378 2.81077 5.34078C1.73077 5.48578 3.02777 5.74078 2.71877 5.79678C2.15477 5.99278 3.39077 6.12478 2.64577 6.33078C2.18577 6.24278 1.70577 6.08478 1.90277 5.60078C0.867768 5.73378 -0.0422323 6.16378 0.775768 7.21678H0.835768L0.836768 7.21778ZM3.33077 5.94778C3.57377 5.05378 4.63077 6.68278 3.72877 6.06578C3.62077 5.98578 3.44377 5.91978 3.33077 5.94578V5.94778ZM3.37777 5.51378C3.72777 5.25378 3.56377 5.65978 3.37777 5.51378V5.51378ZM3.82277 5.52178C3.85477 5.11078 4.84077 5.73978 3.98577 5.66978L3.82277 5.52178ZM4.43077 5.27678C4.65277 5.01678 4.49477 5.50678 4.43077 5.27678V5.27678ZM4.58677 5.17278C4.95677 4.72878 6.68177 4.88978 5.41877 5.12978C5.08077 4.87478 4.82077 5.27978 4.58677 5.17278ZM6.83677 4.82578C6.78177 3.61178 7.95577 5.25778 6.83677 4.82578V4.82578ZM7.47677 4.82178C7.70977 4.20978 8.38277 4.57678 7.58477 4.69878C7.60177 4.76378 7.56077 5.01478 7.47677 4.82178ZM2.32177 8.06678C3.01877 7.63978 1.58077 7.69678 2.32177 8.06678V8.06678ZM2.83677 8.21078C3.08177 7.95078 2.30577 8.10478 2.83677 8.21078V8.21078ZM1.31677 7.13078C1.71577 6.82578 0.845768 7.01478 1.31677 7.13078V7.13078ZM21.9188 20.0208C21.9308 19.6658 21.6148 20.1808 21.9188 20.0208V20.0208ZM19.8258 18.5908C19.8858 18.1828 19.5558 18.6278 19.8258 18.5908V18.5908ZM22.4958 20.1588C23.0528 20.1588 24.1838 19.9858 22.9708 19.9858C22.7808 20.0158 21.8618 20.0098 22.4948 20.1588H22.4958ZM3.28977 7.95878C3.73977 7.92878 3.99577 7.46178 3.20277 7.48878C1.97277 7.36178 4.28677 7.90878 3.04477 7.75278C2.87777 7.86278 3.28077 7.98978 3.28977 7.95978V7.95878ZM3.68777 8.16078C3.63977 7.87078 3.54777 8.31478 3.68777 8.16078V8.16078ZM4.15777 6.90378C4.35477 6.66078 3.88777 6.83878 4.15777 6.90378V6.90378ZM2.65777 4.39578C3.46377 4.12178 4.56477 3.81478 4.94477 4.53078C4.55777 4.06478 4.78877 3.60678 5.15477 4.28778C5.67077 4.97678 5.92977 3.97478 5.59277 3.74278C5.97577 4.21878 6.41177 4.44278 5.84977 3.77278C6.45977 3.03878 4.62677 3.86978 4.20977 3.86078C4.00977 3.95078 2.13877 4.33778 2.65877 4.39578H2.65777ZM3.12977 3.49278C3.58977 3.14578 4.71777 3.69878 3.99377 3.14778C3.92377 3.08578 2.40777 3.56578 3.12977 3.49278ZM4.80377 3.56178C5.34177 3.57478 4.57277 2.83978 5.21277 3.17178C5.10777 2.82878 4.46677 2.76478 4.15277 2.62778C3.97677 2.94178 4.51277 3.56578 4.80277 3.56178H4.80377ZM3.42377 2.04178C3.60977 1.78978 3.09777 2.16978 3.42377 2.04178V2.04178ZM4.10777 2.20578C4.97377 2.09078 3.88777 1.83278 3.93377 2.19578L4.10777 2.20578ZM2.83077 1.20578C2.22077 0.409776 3.97677 1.33978 3.35777 0.505776C2.83577 0.0907764 2.33477 0.973776 2.83077 1.20578ZM10.6548 5.42078C10.9348 4.92478 9.49977 4.75278 10.4668 5.24578C10.5568 5.27578 10.5368 5.45578 10.6548 5.42078Z" fill="#A5A5A5"/>
</svg>
